%FSLAX25Y25*%
%MOIN*%
G70*
G01*
G75*
G04 Layer_Color=32896*
%ADD10C,0.05118*%
%ADD11R,0.05906X0.02165*%
%ADD12R,0.02165X0.02559*%
%ADD13R,0.02559X0.02165*%
%ADD14R,0.02362X0.02756*%
%ADD15R,0.02756X0.02362*%
%ADD16C,0.00787*%
%ADD17C,0.01181*%
%ADD18C,0.01969*%
%ADD19R,0.00197X0.00630*%
%ADD20R,0.78740X0.00315*%
%ADD21C,0.05906*%
%ADD22O,0.03500X0.05000*%
%ADD23C,0.01969*%
%ADD24R,0.01378X0.11811*%
%ADD25R,0.03600X0.03600*%
%ADD26R,0.03600X0.05000*%
%ADD27R,0.01575X0.03937*%
%ADD28R,0.05118X0.05118*%
%ADD29R,0.00787X0.02362*%
%ADD30R,0.00787X0.03150*%
%ADD31R,0.02362X0.00787*%
%ADD32R,0.03150X0.00787*%
%ADD33C,0.00500*%
%ADD34C,0.00591*%
%ADD35C,0.00394*%
%ADD36C,0.05918*%
%ADD37R,0.06706X0.02965*%
%ADD38R,0.02965X0.03359*%
%ADD39R,0.03359X0.02965*%
%ADD40R,0.03162X0.03556*%
%ADD41R,0.03556X0.03162*%
%ADD42C,0.06706*%
%ADD43O,0.04300X0.05800*%
%ADD44R,0.02178X0.12611*%
%ADD45R,0.04400X0.04400*%
%ADD46R,0.04400X0.05800*%
%ADD47R,0.02375X0.04737*%
%ADD48R,0.05918X0.05918*%
%ADD49R,0.01587X0.03162*%
%ADD50R,0.01587X0.03950*%
%ADD51R,0.03162X0.01587*%
%ADD52R,0.03950X0.01587*%
%ADD53C,0.00600*%
%ADD54C,0.01200*%
%ADD55C,0.00709*%
%ADD56C,0.00236*%
D16*
X25347Y26590D02*
G03*
X25347Y26590I-394J0D01*
G01*
X63785Y34048D02*
G03*
X63785Y34048I-394J0D01*
G01*
D34*
X7883Y49409D02*
X70875D01*
X7883Y6102D02*
Y49409D01*
Y6102D02*
X70875D01*
Y49409D01*
X62525Y21135D02*
Y22788D01*
X60872Y21135D02*
X62525D01*
X50714D02*
Y22788D01*
Y21135D02*
X52368D01*
X50714Y31292D02*
Y32945D01*
X52368D01*
X60872D02*
X62525D01*
Y31253D02*
Y32945D01*
X49747Y41568D02*
X53094D01*
Y37631D02*
Y41568D01*
X49747Y37631D02*
X53094D01*
X44826Y41568D02*
X48173D01*
X44826Y37631D02*
Y41568D01*
Y37631D02*
X48173D01*
X44816Y43211D02*
X48163D01*
X44816D02*
Y47148D01*
X48163D01*
X49737Y43211D02*
X53084D01*
Y47148D01*
X49737D02*
X53084D01*
D35*
X58907Y748D02*
X59418Y1260D01*
Y13284D01*
X19536D02*
X59418D01*
X19536Y1260D02*
Y13284D01*
X20048Y748D02*
X58907D01*
X19536Y1260D02*
X20048Y748D01*
X58661Y44291D02*
Y46653D01*
X57481D01*
X57087Y46259D01*
Y45472D01*
X57481Y45079D01*
X58661D01*
X57874D02*
X57087Y44291D01*
X56300D02*
X55513D01*
X55906D01*
Y46653D01*
X56300Y46259D01*
X54332D02*
X53939Y46653D01*
X53151D01*
X52758Y46259D01*
Y44685D01*
X53151Y44291D01*
X53939D01*
X54332Y44685D01*
Y46259D01*
X57559Y38858D02*
Y41220D01*
X56378D01*
X55985Y40826D01*
Y40039D01*
X56378Y39645D01*
X57559D01*
X56772D02*
X55985Y38858D01*
X55198Y39252D02*
X54804Y38858D01*
X54017D01*
X53623Y39252D01*
Y40826D01*
X54017Y41220D01*
X54804D01*
X55198Y40826D01*
Y40433D01*
X54804Y40039D01*
X53623D01*
X32707Y41939D02*
Y39971D01*
X32313Y39577D01*
X31526D01*
X31133Y39971D01*
Y41939D01*
X30346Y41545D02*
X29952Y41939D01*
X29165D01*
X28771Y41545D01*
Y41152D01*
X29165Y40758D01*
X29558D01*
X29165D01*
X28771Y40365D01*
Y39971D01*
X29165Y39577D01*
X29952D01*
X30346Y39971D01*
X28907Y26210D02*
X26939D01*
X26545Y26604D01*
Y27391D01*
X26939Y27785D01*
X28907D01*
X26545Y30146D02*
Y28572D01*
X28120Y30146D01*
X28513D01*
X28907Y29753D01*
Y28965D01*
X28513Y28572D01*
X21120Y16409D02*
X21907D01*
X21513D01*
Y14441D01*
X21907Y14047D01*
X22300D01*
X22694Y14441D01*
X20333Y14047D02*
X19545D01*
X19939D01*
Y16409D01*
X20333Y16015D01*
X65276Y37165D02*
Y35197D01*
X64882Y34803D01*
X64095D01*
X63701Y35197D01*
Y37165D01*
X62914Y34803D02*
X62127D01*
X62521D01*
Y37165D01*
X62914Y36771D01*
D53*
X61896Y31922D02*
G03*
X61896Y31922I-394J0D01*
G01*
D54*
X30018Y33287D02*
Y37787D01*
X41518Y33287D02*
Y37787D01*
X30018D02*
X32018D01*
X35518Y28787D02*
X36018D01*
X39518Y37787D02*
X41518D01*
D55*
X24769Y27940D02*
Y34240D01*
X13351Y27940D02*
X24769D01*
X13351Y34240D02*
X24769D01*
X13351Y27940D02*
Y34240D01*
D56*
X59918Y11541D02*
X60106Y11447D01*
X60387Y11166D01*
Y13134D01*
X60293Y11259D02*
Y13134D01*
X59918D02*
X60762D01*
X62036Y11353D02*
Y13134D01*
X62599Y12572D02*
X61099D01*
X62130Y11166D01*
Y13134D01*
X61755D02*
X62411D01*
X18001Y11753D02*
X18189Y11660D01*
X18470Y11378D01*
Y13347D01*
X18376Y11472D02*
Y13347D01*
X18001D02*
X18845D01*
X60383Y9799D02*
Y10193D01*
X60580Y10390D01*
X61367D01*
X61564Y10193D01*
Y9799D01*
X61367Y9603D01*
X60580D01*
X60383Y9799D01*
Y9209D02*
X61564D01*
Y8422D01*
X60383Y7241D02*
Y8028D01*
X61564D01*
Y7241D01*
X60974Y8028D02*
Y7635D01*
X60383Y6848D02*
X61564D01*
Y6257D01*
X61367Y6061D01*
X60580D01*
X60383Y6257D01*
Y6848D01*
X60974Y5667D02*
Y4880D01*
X60580Y4486D02*
X60383Y4289D01*
Y3896D01*
X60580Y3699D01*
X61367D01*
X61564Y3896D01*
Y4289D01*
X61367Y4486D01*
X60580D01*
X61564Y3305D02*
X61367D01*
Y3109D01*
X61564D01*
Y3305D01*
Y1731D02*
X60383D01*
X60974Y2321D01*
Y1534D01*
X61367Y1141D02*
X61564Y944D01*
Y550D01*
X61367Y354D01*
X60580D01*
X60383Y550D01*
Y944D01*
X60580Y1141D01*
X60777D01*
X60974Y944D01*
Y354D01*
M02*
