%FSLAX25Y25*%
%MOIN*%
G70*
G01*
G75*
G04 Layer_Color=8421504*
%ADD10C,0.05118*%
%ADD11R,0.05906X0.02165*%
%ADD12R,0.02165X0.02559*%
%ADD13R,0.02559X0.02165*%
%ADD14R,0.02362X0.02756*%
%ADD15R,0.02756X0.02362*%
%ADD16C,0.00787*%
%ADD17C,0.01181*%
%ADD18C,0.01969*%
%ADD19R,0.00197X0.00630*%
%ADD20R,0.78740X0.00315*%
%ADD21C,0.05906*%
%ADD22O,0.03500X0.05000*%
%ADD23C,0.01969*%
%ADD24R,0.01378X0.11811*%
%ADD25R,0.03600X0.03600*%
%ADD26R,0.03600X0.05000*%
%ADD27R,0.01575X0.03937*%
%ADD28R,0.05118X0.05118*%
%ADD29R,0.00787X0.02362*%
%ADD30R,0.00787X0.03150*%
%ADD31R,0.02362X0.00787*%
%ADD32R,0.03150X0.00787*%
%ADD33C,0.00500*%
%ADD34C,0.00591*%
%ADD35C,0.00394*%
D10*
X8560Y49160D02*
D03*
Y41510D02*
D03*
Y31740D02*
D03*
Y22850D02*
D03*
X8530Y14170D02*
D03*
D11*
X72934Y35842D02*
D03*
Y23213D02*
D03*
D12*
X15270Y43750D02*
D03*
X19207D02*
D03*
X19270Y29700D02*
D03*
X15333D02*
D03*
X44970Y31500D02*
D03*
X41033D02*
D03*
X20850Y8938D02*
D03*
X24787D02*
D03*
X35030Y25770D02*
D03*
X38967D02*
D03*
X25660Y19440D02*
D03*
X29597D02*
D03*
X15350Y19990D02*
D03*
X19287D02*
D03*
X61580Y45405D02*
D03*
X57643D02*
D03*
X60860Y16050D02*
D03*
X64797D02*
D03*
D13*
X55610Y9653D02*
D03*
Y5716D02*
D03*
D14*
X19370Y37110D02*
D03*
X14645D02*
D03*
X51222Y39630D02*
D03*
X46498D02*
D03*
Y45450D02*
D03*
X51222D02*
D03*
X39652Y14610D02*
D03*
X34928D02*
D03*
X39652Y8980D02*
D03*
X34928D02*
D03*
D15*
X50730Y21338D02*
D03*
Y26062D02*
D03*
X44980Y21338D02*
D03*
Y26062D02*
D03*
X50100Y9752D02*
D03*
Y5028D02*
D03*
M02*
