%FSLAX25Y25*%
%MOIN*%
G70*
G01*
G75*
G04 Layer_Physical_Order=2*
G04 Layer_Color=16711680*
%ADD10C,0.05118*%
%ADD11R,0.05906X0.02165*%
%ADD12R,0.02165X0.02559*%
%ADD13R,0.02559X0.02165*%
%ADD14R,0.02362X0.02756*%
%ADD15R,0.02756X0.02362*%
%ADD16C,0.00787*%
%ADD17C,0.01181*%
%ADD18C,0.01969*%
%ADD19R,0.00197X0.00630*%
%ADD20R,0.78740X0.00315*%
%ADD21C,0.05906*%
%ADD22O,0.03500X0.05000*%
%ADD23C,0.01969*%
%ADD24R,0.01378X0.11811*%
%ADD25R,0.03600X0.03600*%
%ADD26R,0.03600X0.05000*%
%ADD27R,0.01575X0.03937*%
%ADD28R,0.05118X0.05118*%
%ADD29R,0.00787X0.02362*%
%ADD30R,0.00787X0.03150*%
%ADD31R,0.02362X0.00787*%
%ADD32R,0.03150X0.00787*%
G36*
X67617Y57805D02*
X69431Y57369D01*
X71154Y56656D01*
X72745Y55681D01*
X74163Y54469D01*
X75375Y53051D01*
X76349Y51460D01*
X76850Y50252D01*
Y8690D01*
X76364Y7518D01*
X75401Y5947D01*
X74204Y4545D01*
X72803Y3348D01*
X71231Y2385D01*
X69528Y1679D01*
X67735Y1249D01*
X65925Y1106D01*
X65898Y1112D01*
X58572D01*
Y7144D01*
X60711Y9283D01*
X60866Y9252D01*
X61481Y9374D01*
X62002Y9722D01*
X62350Y10243D01*
X62472Y10857D01*
X62350Y11472D01*
X62002Y11993D01*
X61481Y12341D01*
X60866Y12463D01*
X60252Y12341D01*
X59731Y11993D01*
X59383Y11472D01*
X59260Y10857D01*
X59267Y10825D01*
X58880Y10508D01*
X58572Y10635D01*
Y13780D01*
X57895D01*
X57750Y14258D01*
X58222Y14573D01*
X58570Y15094D01*
X58692Y15709D01*
X58570Y16323D01*
X58222Y16844D01*
X57701Y17192D01*
X57386Y17255D01*
X57320Y17475D01*
X57537Y17801D01*
X57613Y18185D01*
X57613Y18185D01*
X57613Y18185D01*
Y18185D01*
Y18969D01*
X60754D01*
Y22512D01*
X59179D01*
Y23300D01*
X54061D01*
Y22512D01*
X52486D01*
Y21752D01*
X44882D01*
X44498Y21675D01*
X44390Y21603D01*
X44172Y21458D01*
X43786Y21071D01*
X43308Y21217D01*
X43255Y21481D01*
X42907Y22002D01*
X42386Y22350D01*
X41772Y22472D01*
X41157Y22350D01*
X41063Y22287D01*
X40746Y22673D01*
X41892Y23819D01*
X42047Y23788D01*
X42662Y23910D01*
X43183Y24258D01*
X43531Y24779D01*
X43653Y25394D01*
X43531Y26008D01*
X43183Y26529D01*
X42662Y26877D01*
X42047Y26999D01*
X41433Y26877D01*
X40912Y26529D01*
X40564Y26008D01*
X40442Y25394D01*
X40472Y25238D01*
X38818Y23584D01*
X38600Y23258D01*
X38524Y22874D01*
X38524Y22874D01*
X38524D01*
X38524Y22874D01*
X38524D01*
Y21085D01*
X37773Y20334D01*
X35984D01*
X35600Y20258D01*
X35275Y20040D01*
X34821Y19586D01*
X12208D01*
X12120Y19718D01*
X11599Y20066D01*
X10984Y20188D01*
X10370Y20066D01*
X9849Y19718D01*
X9501Y19197D01*
X9379Y18583D01*
X9501Y17968D01*
X9849Y17447D01*
X10370Y17099D01*
X10984Y16977D01*
X11599Y17099D01*
X12120Y17447D01*
X12208Y17579D01*
X30633D01*
X30797Y17380D01*
X30675Y16895D01*
X30448Y16801D01*
X30348Y16868D01*
X29733Y16991D01*
X29119Y16868D01*
X28598Y16520D01*
X28110D01*
X28104Y16529D01*
X27583Y16877D01*
X26969Y16999D01*
X26354Y16877D01*
X25833Y16529D01*
X25801Y16481D01*
X25357D01*
X24836Y16829D01*
X24221Y16951D01*
X23607Y16829D01*
X23086Y16481D01*
X23025Y16389D01*
X22535Y16292D01*
X22071Y16601D01*
X21457Y16724D01*
X20842Y16601D01*
X20321Y16253D01*
X19973Y15733D01*
X19851Y15118D01*
X19973Y14504D01*
X20186Y14185D01*
X20186Y13780D01*
X20186D01*
X20186Y13780D01*
Y13780D01*
D01*
Y1112D01*
X13001D01*
X12972Y1106D01*
X11141Y1250D01*
X9327Y1686D01*
X7604Y2400D01*
X6013Y3374D01*
X4595Y4586D01*
X3383Y6004D01*
X2409Y7595D01*
X1908Y8803D01*
Y50252D01*
X2409Y51460D01*
X3383Y53051D01*
X4595Y54469D01*
X6013Y55681D01*
X7604Y56656D01*
X9327Y57369D01*
X11141Y57805D01*
X12972Y57949D01*
X13001Y57943D01*
X32381D01*
X32479Y57453D01*
X32002Y57255D01*
X31261Y56687D01*
X30693Y55947D01*
X30336Y55085D01*
X30215Y54160D01*
X30336Y53235D01*
X30693Y52373D01*
X31261Y51633D01*
X32002Y51065D01*
X32863Y50708D01*
X33788Y50586D01*
X34713Y50708D01*
X35497Y51032D01*
X42042Y44487D01*
X42368Y44270D01*
X42752Y44193D01*
X44816D01*
Y43211D01*
X48359D01*
Y43430D01*
X49541D01*
Y43211D01*
X50309D01*
Y41568D01*
X49551D01*
Y41350D01*
X47760D01*
Y37850D01*
X49551D01*
Y37631D01*
X51855D01*
X53913Y35573D01*
X53722Y35111D01*
X52486D01*
Y31568D01*
X54061D01*
Y30780D01*
X59179D01*
Y31568D01*
X60754D01*
Y35111D01*
X59979D01*
X59787Y35573D01*
X60473Y36259D01*
X60691Y36584D01*
X60704Y36648D01*
X60767Y36968D01*
Y40981D01*
X60899Y41069D01*
X61247Y41590D01*
X61369Y42205D01*
X61247Y42819D01*
X60899Y43340D01*
X60378Y43688D01*
X59764Y43810D01*
X59149Y43688D01*
X58628Y43340D01*
X58280Y42819D01*
X58158Y42205D01*
X58280Y41590D01*
X58628Y41069D01*
X58760Y40981D01*
Y37647D01*
X58359Y37349D01*
X58161Y37409D01*
X58098Y37729D01*
X57749Y38250D01*
X57229Y38598D01*
X56614Y38720D01*
X56000Y38598D01*
X55479Y38250D01*
X55136Y37736D01*
X54638Y37687D01*
X53094Y39231D01*
Y41568D01*
X52316D01*
Y43211D01*
X53084D01*
Y47148D01*
X49541D01*
Y46930D01*
X48359D01*
Y47148D01*
X44816D01*
Y46200D01*
X43167D01*
X36916Y52452D01*
X37240Y53235D01*
X37362Y54160D01*
X37240Y55085D01*
X36884Y55947D01*
X36316Y56687D01*
X35575Y57255D01*
X35098Y57453D01*
X35195Y57943D01*
X65757D01*
X65786Y57949D01*
X67617Y57805D01*
D02*
G37*
%LPC*%
G36*
X73150Y32669D02*
X72535Y32546D01*
X72014Y32198D01*
X71666Y31677D01*
X71544Y31063D01*
X71575Y30907D01*
X70286Y29618D01*
X64691D01*
Y31174D01*
X61148D01*
Y29599D01*
X60360D01*
Y27630D01*
X62429D01*
X62525Y27611D01*
X70701D01*
X71086Y27688D01*
X71411Y27905D01*
X72994Y29488D01*
X73150Y29457D01*
X73764Y29580D01*
X74285Y29928D01*
X74633Y30448D01*
X74755Y31063D01*
X74633Y31677D01*
X74285Y32198D01*
X73764Y32546D01*
X73150Y32669D01*
D02*
G37*
G36*
X66686Y27071D02*
X66071Y26949D01*
X65550Y26601D01*
X65462Y26469D01*
X62525D01*
X62429Y26449D01*
X60360D01*
Y24481D01*
X61148D01*
Y22906D01*
X61488D01*
X61729Y22545D01*
X61772Y22465D01*
X61429Y21952D01*
X61307Y21338D01*
X61429Y20723D01*
X61777Y20202D01*
X62298Y19854D01*
X62913Y19732D01*
X63527Y19854D01*
X64048Y20202D01*
X64396Y20723D01*
X64518Y21338D01*
X64396Y21952D01*
X64048Y22473D01*
X63917Y22561D01*
Y22906D01*
X64691D01*
Y24462D01*
X65462D01*
X65550Y24330D01*
X66071Y23982D01*
X66686Y23859D01*
X67300Y23982D01*
X67821Y24330D01*
X68169Y24851D01*
X68291Y25465D01*
X68169Y26080D01*
X67821Y26601D01*
X67300Y26949D01*
X66686Y27071D01*
D02*
G37*
G36*
X61142Y51212D02*
X60527Y51090D01*
X60006Y50742D01*
X59658Y50221D01*
X59536Y49606D01*
X59658Y48992D01*
X60006Y48471D01*
X60527Y48123D01*
X61142Y48001D01*
X61297Y48032D01*
X65682Y43647D01*
Y34917D01*
X65550Y34829D01*
X65202Y34308D01*
X65080Y33694D01*
X65202Y33079D01*
X65550Y32558D01*
X66071Y32210D01*
X66686Y32088D01*
X67300Y32210D01*
X67821Y32558D01*
X68169Y33079D01*
X68291Y33694D01*
X68169Y34308D01*
X67821Y34829D01*
X67689Y34917D01*
Y44062D01*
X67613Y44446D01*
X67395Y44772D01*
X62716Y49451D01*
X62747Y49606D01*
X62625Y50221D01*
X62277Y50742D01*
X61756Y51090D01*
X61142Y51212D01*
D02*
G37*
G36*
X12047Y54283D02*
X11433Y54161D01*
X10912Y53812D01*
X10564Y53292D01*
X10442Y52677D01*
X10564Y52063D01*
X10912Y51542D01*
X11433Y51194D01*
X12047Y51072D01*
X12662Y51194D01*
X13183Y51542D01*
X13271Y51674D01*
X19731D01*
X19778Y51194D01*
X19778D01*
X19780Y51176D01*
X19346Y51090D01*
X18825Y50742D01*
X18737Y50610D01*
X15157D01*
X14773Y50533D01*
X14448Y50316D01*
X12439Y48307D01*
X12284Y48338D01*
X11669Y48216D01*
X11148Y47868D01*
X10800Y47347D01*
X10678Y46732D01*
X10800Y46118D01*
X11148Y45597D01*
X11669Y45249D01*
X12284Y45127D01*
X12898Y45249D01*
X13419Y45597D01*
X13767Y46118D01*
X13889Y46732D01*
X13858Y46888D01*
X15573Y48603D01*
X18737D01*
X18825Y48471D01*
X19346Y48123D01*
X19961Y48001D01*
X20575Y48123D01*
X21096Y48471D01*
X21444Y48992D01*
X21566Y49606D01*
X21444Y50221D01*
X21096Y50742D01*
X20575Y51090D01*
X19961Y51212D01*
Y51320D01*
X20314Y51674D01*
X25135D01*
X28884Y47925D01*
X28827Y47638D01*
X28950Y47023D01*
X29298Y46502D01*
X29818Y46154D01*
X30433Y46032D01*
X31047Y46154D01*
X31568Y46502D01*
X31916Y47023D01*
X32039Y47638D01*
X31916Y48252D01*
X31568Y48773D01*
X31047Y49121D01*
X30433Y49243D01*
X30409Y49238D01*
X26261Y53387D01*
X25935Y53604D01*
X25551Y53681D01*
X13271D01*
X13183Y53812D01*
X12662Y54161D01*
X12047Y54283D01*
D02*
G37*
G36*
X37330Y46596D02*
X36417Y46415D01*
X35643Y45897D01*
X35125Y45123D01*
X34944Y44210D01*
Y42710D01*
X34944Y42710D01*
X34896Y42663D01*
X34635Y42272D01*
X34544Y41811D01*
X34544Y41811D01*
Y40377D01*
X33327D01*
Y38488D01*
X28386D01*
X27925Y38396D01*
X27534Y38135D01*
X27534Y38135D01*
X24640Y35241D01*
X24178Y35432D01*
Y39751D01*
X24178D01*
X24178Y40416D01*
X24279Y40567D01*
X24401Y41181D01*
X24279Y41796D01*
X23931Y42316D01*
X23410Y42665D01*
X22795Y42787D01*
X22181Y42665D01*
X21660Y42316D01*
X21312Y41796D01*
X21190Y41181D01*
X21312Y40567D01*
X21422Y40402D01*
X21422Y39751D01*
X21422D01*
Y34633D01*
X23379D01*
X23571Y34171D01*
X22808Y33409D01*
X16387D01*
X15969Y33688D01*
X15354Y33810D01*
X14740Y33688D01*
X14219Y33340D01*
X13871Y32819D01*
X13749Y32205D01*
X13871Y31590D01*
X14116Y31224D01*
Y27547D01*
X13942D01*
Y22429D01*
X16698D01*
Y27547D01*
X16524D01*
Y31001D01*
X23307D01*
X23307Y31001D01*
X23768Y31092D01*
X24159Y31353D01*
X26492Y33687D01*
X27016Y33583D01*
X27139Y32968D01*
X27487Y32447D01*
X28008Y32099D01*
X28622Y31977D01*
X28778Y32008D01*
X29424Y31361D01*
X29627Y31225D01*
Y26896D01*
X30412D01*
Y26350D01*
X30402Y26299D01*
X30504Y25787D01*
X30524Y25685D01*
X30872Y25164D01*
X31393Y24816D01*
X31495Y24795D01*
X32008Y24693D01*
X32520Y24795D01*
X32622Y24816D01*
X33143Y25164D01*
X33143Y25164D01*
X33143Y25164D01*
X33153Y25174D01*
X33153Y25174D01*
X33501Y25695D01*
X33522Y25797D01*
X33624Y26309D01*
X33624Y26309D01*
Y26896D01*
X34409D01*
Y31068D01*
X41310D01*
X44472Y27905D01*
X44798Y27688D01*
X45182Y27611D01*
X48549D01*
Y26056D01*
Y24481D01*
Y22906D01*
X52092D01*
Y24481D01*
X52880D01*
Y26056D01*
Y27630D01*
Y29599D01*
X52092D01*
Y31174D01*
X48549D01*
Y29618D01*
X45598D01*
X42435Y32781D01*
X42110Y32998D01*
X41726Y33075D01*
X30549D01*
X30197Y33427D01*
X30228Y33583D01*
X30106Y34197D01*
X29757Y34718D01*
X29237Y35066D01*
X28622Y35188D01*
X28518Y35712D01*
X28885Y36079D01*
X33327D01*
Y34196D01*
X38109D01*
Y40377D01*
X38109Y40377D01*
X38109D01*
X38099Y40477D01*
X38243Y40505D01*
X39017Y41023D01*
X39535Y41797D01*
X39716Y42710D01*
Y44210D01*
X39535Y45123D01*
X39017Y45897D01*
X38243Y46415D01*
X37330Y46596D01*
D02*
G37*
G36*
X15270Y42505D02*
X14655Y42383D01*
X14134Y42035D01*
X13786Y41514D01*
X13664Y40900D01*
X13786Y40285D01*
X13942Y40052D01*
X13942Y39751D01*
X13942D01*
Y34633D01*
X16698D01*
Y39751D01*
X16698D01*
X16698Y40202D01*
X16753Y40285D01*
X16875Y40900D01*
X16753Y41514D01*
X16405Y42035D01*
X15884Y42383D01*
X15270Y42505D01*
D02*
G37*
%LPD*%
D14*
X51322Y39600D02*
D03*
X46598D02*
D03*
X46588Y45180D02*
D03*
X51312D02*
D03*
D16*
X12284Y46732D02*
X15157Y49606D01*
X19961D01*
X12047Y52677D02*
X25551D01*
X30433Y47795D01*
X59764Y42205D02*
X59770Y42199D01*
X59764Y42205D02*
Y42244D01*
Y36968D02*
Y42205D01*
X58195Y35399D02*
X59764Y36968D01*
X58195Y32945D02*
Y35399D01*
X49025Y7283D02*
Y13749D01*
X56610Y18185D02*
Y20685D01*
X55045Y19336D02*
Y21135D01*
X52362Y17087D02*
X55512D01*
X56610Y18185D01*
X38001Y7283D02*
Y13023D01*
X43513Y7283D02*
Y19379D01*
X44882Y20748D01*
X53425D01*
X46269Y7283D02*
Y16920D01*
X54173Y18465D02*
X55045Y19336D01*
X47813Y18465D02*
X54173D01*
X51781Y7283D02*
Y13198D01*
X53661Y15079D01*
X54536Y7283D02*
Y13159D01*
X57087Y15709D01*
X57292Y7283D02*
X60866Y10857D01*
X21466Y7283D02*
Y15109D01*
X21457Y15118D02*
X21466Y15109D01*
X24221Y7283D02*
Y15345D01*
X26977Y7283D02*
Y15385D01*
X26969Y15394D02*
X26977Y15385D01*
X29733Y7283D02*
Y15385D01*
X22800Y37192D02*
Y41176D01*
X22795Y41181D02*
X22800Y41176D01*
X33788Y54160D02*
X42752Y45197D01*
X46614D01*
X51312Y39593D02*
Y45180D01*
Y39593D02*
X55039Y35866D01*
Y32953D02*
Y35866D01*
X56614Y37114D02*
X56620Y37120D01*
X62525Y28615D02*
X70701D01*
X73150Y31063D01*
X10984Y18583D02*
X35236D01*
X56620Y32945D02*
Y37120D01*
X45182Y28615D02*
X50714D01*
X41726Y32071D02*
X45182Y28615D01*
X30134Y32071D02*
X41726D01*
X28622Y33583D02*
X30134Y32071D01*
X62525Y25465D02*
X66686D01*
Y33694D02*
Y44062D01*
X61142Y49606D02*
X66686Y44062D01*
X40757Y19851D02*
X41772Y20866D01*
X40757Y7283D02*
Y19851D01*
X46269Y16920D02*
X47813Y18465D01*
X49025Y13749D02*
X52362Y17087D01*
X30433Y47638D02*
Y47795D01*
X62913Y21338D02*
X62913Y21339D01*
Y23898D01*
X32441Y16754D02*
X32489Y16802D01*
X32441Y16614D02*
Y16754D01*
X32489Y7283D02*
Y16802D01*
X38001Y7283D02*
Y16526D01*
X37126Y17402D02*
X38001Y16526D01*
X39528Y22874D02*
X42047Y25394D01*
X39528Y20709D02*
Y22874D01*
X35236Y18583D02*
X35984Y19331D01*
X38189D01*
X39528Y20669D01*
D17*
X15236Y40866D02*
X15270Y40900D01*
X15236Y37323D02*
Y40866D01*
Y37323D02*
X15276Y37284D01*
X15320Y24988D02*
Y32170D01*
X15354Y32205D01*
X23307D01*
X28386Y37284D01*
X35709D01*
X35748Y37323D01*
Y41811D01*
X37362Y43425D01*
D18*
X32018Y26309D02*
Y29287D01*
X32008Y26299D02*
X32018Y26309D01*
D21*
X33788Y54160D02*
D03*
X44969D02*
D03*
D22*
X27330Y43460D02*
D03*
X37330D02*
D03*
D23*
X10984Y18583D02*
D03*
X12284Y46732D02*
D03*
X12047Y52677D02*
D03*
X55394Y28150D02*
D03*
X57795D02*
D03*
X57874Y25945D02*
D03*
X55394D02*
D03*
X47047Y17835D02*
D03*
X50945Y15787D02*
D03*
X53661Y15079D02*
D03*
X57087Y15709D02*
D03*
X60866Y10857D02*
D03*
X21457Y15118D02*
D03*
X24221Y15345D02*
D03*
X26969Y15394D02*
D03*
X29733Y15385D02*
D03*
X15270Y40900D02*
D03*
X22795Y41181D02*
D03*
X15354Y32205D02*
D03*
X32008Y26299D02*
D03*
X56614Y37114D02*
D03*
X59764Y42205D02*
D03*
X73150Y31063D02*
D03*
X42047Y25394D02*
D03*
X28622Y33583D02*
D03*
X66686Y25465D02*
D03*
Y33694D02*
D03*
X61142Y49606D02*
D03*
X19961D02*
D03*
X68425Y9646D02*
D03*
X41339Y39331D02*
D03*
X23110Y46496D02*
D03*
X70748Y42244D02*
D03*
X35906Y29370D02*
D03*
X41772Y20866D02*
D03*
X30433Y47638D02*
D03*
X47520Y23740D02*
D03*
X62795Y38543D02*
D03*
X37126Y17362D02*
D03*
X62913Y21338D02*
D03*
X32441Y16614D02*
D03*
X48346Y33543D02*
D03*
X26969Y26772D02*
D03*
X37165Y21378D02*
D03*
D24*
X57292Y7283D02*
D03*
X54536D02*
D03*
X51781D02*
D03*
X49025D02*
D03*
X46269D02*
D03*
X43513D02*
D03*
X40757D02*
D03*
X38001D02*
D03*
X35245D02*
D03*
X32489D02*
D03*
X29733D02*
D03*
X26977D02*
D03*
X24221D02*
D03*
X21466D02*
D03*
D25*
X32018Y29287D02*
D03*
X39518D02*
D03*
D26*
X35718Y37287D02*
D03*
D27*
X22800Y24988D02*
D03*
X15320D02*
D03*
X19060D02*
D03*
X15320Y37192D02*
D03*
X22800D02*
D03*
D28*
X56620Y27040D02*
D03*
D29*
X59770Y33339D02*
D03*
X53470D02*
D03*
Y20741D02*
D03*
X59770D02*
D03*
D30*
X58195Y32945D02*
D03*
X56620D02*
D03*
X55045D02*
D03*
Y21135D02*
D03*
X56620D02*
D03*
X58195D02*
D03*
D31*
X50321Y30190D02*
D03*
Y23890D02*
D03*
X62919D02*
D03*
Y30190D02*
D03*
D32*
X50714Y28615D02*
D03*
Y27040D02*
D03*
Y25465D02*
D03*
X62525D02*
D03*
Y27040D02*
D03*
Y28615D02*
D03*
M02*
