M48
;Layer_Color=9474304
;FILE_FORMAT=2:5
INCH,LZ
;TYPE=PLATED
T1F00S00C0.01181
T2F00S00C0.02362
T3F00S00C0.02400
%
T01
X0021457Y0015118
X0024221Y0015345
X0026969Y0015394
X0029733Y0015385
X0032441Y0016614
X0037126Y0017362
X0037165Y0021378
X0041772Y0020866
X0042047Y0025394
X004752Y002374
X0047047Y0017835
X0050945Y0015787
X0053661Y0015079
X0057087Y0015709
X0060866Y0010857
X0068425Y0009646
X0062913Y0021338
X0066686Y0025465
Y0033694
X0062795Y0038543
X0059764Y0042205
X0056614Y0037114
X0057795Y002815
X0057874Y0025945
X0055394
Y002815
X0048346Y0033543
X0041339Y0039331
X0035906Y002937
X0032008Y0026299
X0026969Y0026772
X0028622Y0033583
X0022795Y0041181
X002311Y0046496
X0019961Y0049606
X0030433Y0047638
X001527Y00409
X0015354Y0032205
X007315Y0031063
X0070748Y0042244
X0061142Y0049606
X0012284Y0046732
X0012047Y0052677
X0010984Y0018583
T02
X0033788Y005416
X0044969
T03
X002733Y004346
X003733
M30
