%FSLAX25Y25*%
%MOIN*%
G70*
G01*
G75*
%ADD10C,0.05118*%
%ADD11R,0.05906X0.02165*%
%ADD12R,0.02165X0.02559*%
%ADD13R,0.02559X0.02165*%
%ADD14R,0.02362X0.02756*%
%ADD15R,0.02756X0.02362*%
%ADD16C,0.00787*%
%ADD17C,0.01181*%
%ADD18C,0.01969*%
%ADD19R,0.00197X0.00630*%
%ADD20R,0.78740X0.00315*%
%ADD21C,0.05906*%
%ADD22O,0.03500X0.05000*%
%ADD23C,0.01969*%
%ADD24R,0.01378X0.11811*%
%ADD25R,0.03600X0.03600*%
%ADD26R,0.03600X0.05000*%
%ADD27R,0.01575X0.03937*%
%ADD28R,0.05118X0.05118*%
%ADD29R,0.00787X0.02362*%
%ADD30R,0.00787X0.03150*%
%ADD31R,0.02362X0.00787*%
%ADD32R,0.03150X0.00787*%
%ADD33C,0.00500*%
%ADD34C,0.00591*%
%ADD35C,0.00394*%
D16*
X30048Y50223D02*
Y58097D01*
Y50223D02*
X48710D01*
Y58097D01*
X30048D02*
X48710D01*
X69194Y21457D02*
Y37598D01*
X76674Y21457D02*
Y37598D01*
X69194Y21457D02*
X76674D01*
X69194Y37598D02*
X76674D01*
X26687Y55775D02*
Y52402D01*
X25000Y54088D02*
X28374D01*
X50472Y53813D02*
X53846D01*
D33*
X13769Y45714D02*
G03*
X13694Y41778I4907J-2063D01*
G01*
X20625Y41785D02*
G03*
X20622Y45684I-4864J1945D01*
G01*
X20771Y27736D02*
G03*
X20846Y31672I-4907J2063D01*
G01*
X13915Y31665D02*
G03*
X13918Y27766I4864J-1945D01*
G01*
X46471Y29536D02*
G03*
X46546Y33472I-4907J2063D01*
G01*
X39615Y33465D02*
G03*
X39618Y29566I4864J-1945D01*
G01*
X57574Y11153D02*
G03*
X53638Y11229I-2063J-4907D01*
G01*
X53645Y4297D02*
G03*
X57544Y4300I1945J4864D01*
G01*
X19349Y10902D02*
G03*
X19274Y6966I4907J-2063D01*
G01*
X26205Y6973D02*
G03*
X26202Y10872I-4864J1945D01*
G01*
X33529Y27734D02*
G03*
X33454Y23798I4907J-2063D01*
G01*
X40385Y23805D02*
G03*
X40382Y27704I-4864J1945D01*
G01*
X24159Y21404D02*
G03*
X24084Y17468I4907J-2063D01*
G01*
X31015Y17475D02*
G03*
X31012Y21374I-4864J1945D01*
G01*
X13849Y21954D02*
G03*
X13774Y18018I4907J-2063D01*
G01*
X20705Y18025D02*
G03*
X20702Y21924I-4864J1945D01*
G01*
X63081Y43441D02*
G03*
X63156Y47376I-4907J2063D01*
G01*
X56225Y47370D02*
G03*
X56228Y43471I4864J-1945D01*
G01*
X59359Y18014D02*
G03*
X59284Y14078I4907J-2063D01*
G01*
X66215Y14085D02*
G03*
X66212Y17984I-4864J1945D01*
G01*
X13771Y45719D02*
X16451D01*
X13692Y41781D02*
X16451D01*
X18138Y45719D02*
X20624D01*
X18026Y41781D02*
X20624D01*
X18089Y27731D02*
X20769D01*
X18089Y31668D02*
X20848D01*
X13916Y27731D02*
X16402D01*
X13916Y31668D02*
X16514D01*
X43789Y29531D02*
X46469D01*
X43789Y33468D02*
X46548D01*
X39616Y29531D02*
X42102D01*
X39616Y33468D02*
X42214D01*
X57578Y8472D02*
Y11151D01*
X53641Y8472D02*
Y11230D01*
X57539Y4298D02*
X57578Y6897D01*
X53641Y4298D02*
Y6897D01*
X19351Y10906D02*
X22031D01*
X19273Y6969D02*
X22031D01*
X23606Y10906D02*
X26204Y10867D01*
X23606Y6969D02*
X26204D01*
X33531Y27738D02*
X36211D01*
X33452Y23801D02*
X36211D01*
X37786Y27738D02*
X40384Y27699D01*
X37786Y23801D02*
X40384D01*
X24161Y21408D02*
X26841D01*
X24082Y17471D02*
X26841D01*
X28416Y21408D02*
X31014Y21369D01*
X28416Y17471D02*
X31014D01*
X13851Y21959D02*
X16531D01*
X13772Y18022D02*
X16531D01*
X18106Y21959D02*
X20704Y21919D01*
X18106Y18022D02*
X20704D01*
X60399Y43436D02*
X63079D01*
X60399Y47373D02*
X63158D01*
X56226Y43476D02*
X58824Y43436D01*
X56226Y47373D02*
X58824D01*
X59361Y18019D02*
X62041D01*
X59282Y14082D02*
X62041D01*
X63616Y18019D02*
X66214Y17979D01*
X63616Y14082D02*
X66214D01*
D34*
X25322Y38539D02*
Y48381D01*
X39377Y38539D02*
Y48381D01*
X25322Y38539D02*
X39377D01*
X25322Y48381D02*
X39377D01*
X16190Y41693D02*
X22677D01*
X56081D02*
X62568D01*
Y35206D02*
Y41693D01*
Y17362D02*
Y23849D01*
X56081Y17362D02*
X62568D01*
X16190D02*
X22677D01*
X16190D02*
Y23849D01*
Y35206D02*
Y41693D01*
X17795Y35142D02*
X21141D01*
Y39079D01*
X17795D02*
X21141D01*
X12874Y35142D02*
X16220D01*
X12874D02*
Y39079D01*
X16220D01*
X48761Y19566D02*
Y22913D01*
Y19566D02*
X52698D01*
Y22913D01*
X48761Y24487D02*
Y27834D01*
X52698D01*
Y24487D02*
Y27834D01*
X43012Y19566D02*
Y22913D01*
Y19566D02*
X46949D01*
Y22913D01*
X43012Y24487D02*
Y27834D01*
X46949D01*
Y24487D02*
Y27834D01*
X49647Y37661D02*
X52994D01*
Y41598D01*
X49647D02*
X52994D01*
X44726Y37661D02*
X48073D01*
X44726D02*
Y41598D01*
X48073D01*
X44726Y47418D02*
X48073D01*
X44726Y43481D02*
Y47418D01*
Y43481D02*
X48073D01*
X49647Y47418D02*
X52994D01*
Y43481D02*
Y47418D01*
X49647Y43481D02*
X52994D01*
X52069Y8177D02*
Y11524D01*
X48131D02*
X52069D01*
X48131Y8177D02*
Y11524D01*
X52069Y3256D02*
Y6603D01*
X48131Y3256D02*
X52069D01*
X48131D02*
Y6603D01*
X38077Y12641D02*
X41424D01*
Y16578D01*
X38077D02*
X41424D01*
X33156Y12641D02*
X36503D01*
X33156D02*
Y16578D01*
X36503D01*
X38077Y7012D02*
X41424D01*
Y10949D01*
X38077D02*
X41424D01*
X33156Y7012D02*
X36503D01*
X33156D02*
Y10949D01*
X36503D01*
D35*
X34291Y48267D02*
X35041Y46299D01*
X35791Y48267D02*
X35041Y46299D01*
X36887Y47986D02*
Y46299D01*
X36044Y47143D02*
X37731D01*
X2481Y37520D02*
X4449D01*
Y38504D01*
X4121Y38832D01*
X2809D01*
X2481Y38504D01*
Y37520D01*
X4449Y39487D02*
X3137D01*
X2481Y40143D01*
X3137Y40799D01*
X4449D01*
X3465D01*
Y39487D01*
X2481Y41455D02*
Y42767D01*
Y42111D01*
X4449D01*
X3006Y30052D02*
X2678Y29724D01*
Y29068D01*
X3006Y28740D01*
X4318D01*
X4646Y29068D01*
Y29724D01*
X4318Y30052D01*
X2678Y30708D02*
X4646D01*
Y32020D01*
X2678Y32676D02*
X4646D01*
X3990D01*
X2678Y33988D01*
X3662Y33004D01*
X4646Y33988D01*
X4803Y20276D02*
X2835D01*
Y21260D01*
X3163Y21587D01*
X3819D01*
X4147Y21260D01*
Y20276D01*
Y20932D02*
X4803Y21587D01*
X3163Y23555D02*
X2835Y23227D01*
Y22571D01*
X3163Y22243D01*
X3491D01*
X3819Y22571D01*
Y23227D01*
X4147Y23555D01*
X4475D01*
X4803Y23227D01*
Y22571D01*
X4475Y22243D01*
X2835Y24211D02*
Y25523D01*
Y24867D01*
X4803D01*
X51456Y57755D02*
X50669D01*
X51063D01*
Y55787D01*
X50669Y55394D01*
X50275D01*
X49882Y55787D01*
X52243Y55394D02*
Y57755D01*
X53424D01*
X53818Y57362D01*
Y56574D01*
X53424Y56181D01*
X52243D01*
X54605Y55394D02*
X55392D01*
X54998D01*
Y57755D01*
X54605Y57362D01*
X30708Y44684D02*
X29921D01*
X30315D01*
Y42716D01*
X29921Y42323D01*
X29527D01*
X29134Y42716D01*
X31495Y42323D02*
Y44684D01*
X32676D01*
X33070Y44291D01*
Y43504D01*
X32676Y43110D01*
X31495D01*
X35431Y42323D02*
X33857D01*
X35431Y43897D01*
Y44291D01*
X35037Y44684D01*
X34250D01*
X33857Y44291D01*
X27598Y7598D02*
Y9960D01*
X28779D01*
X29173Y9566D01*
Y8779D01*
X28779Y8386D01*
X27598D01*
X28386D02*
X29173Y7598D01*
X29960Y9566D02*
X30353Y9960D01*
X31141D01*
X31534Y9566D01*
Y9173D01*
X31141Y8779D01*
X31534Y8386D01*
Y7992D01*
X31141Y7598D01*
X30353D01*
X29960Y7992D01*
Y8386D01*
X30353Y8779D01*
X29960Y9173D01*
Y9566D01*
X30353Y8779D02*
X31141D01*
X42126Y13032D02*
Y15393D01*
X43307D01*
X43700Y14999D01*
Y14212D01*
X43307Y13819D01*
X42126D01*
X42913D02*
X43700Y13032D01*
X44487Y15393D02*
X46062D01*
Y14999D01*
X44487Y13425D01*
Y13032D01*
X43701Y6732D02*
Y9094D01*
X44881D01*
X45275Y8700D01*
Y7913D01*
X44881Y7519D01*
X43701D01*
X44488D02*
X45275Y6732D01*
X47637Y9094D02*
X46849Y8700D01*
X46062Y7913D01*
Y7126D01*
X46456Y6732D01*
X47243D01*
X47637Y7126D01*
Y7519D01*
X47243Y7913D01*
X46062D01*
X47451Y47644D02*
Y50006D01*
X48632D01*
X49025Y49612D01*
Y48825D01*
X48632Y48432D01*
X47451D01*
X48238D02*
X49025Y47644D01*
X51386Y50006D02*
X49812D01*
Y48825D01*
X50599Y49219D01*
X50993D01*
X51386Y48825D01*
Y48038D01*
X50993Y47644D01*
X50206D01*
X49812Y48038D01*
X49646Y34291D02*
Y36653D01*
X50826D01*
X51220Y36259D01*
Y35472D01*
X50826Y35078D01*
X49646D01*
X50433D02*
X51220Y34291D01*
X53188D02*
Y36653D01*
X52007Y35472D01*
X53581D01*
X42047Y16772D02*
Y19133D01*
X43228D01*
X43622Y18740D01*
Y17952D01*
X43228Y17559D01*
X42047D01*
X42834D02*
X43622Y16772D01*
X44409Y18740D02*
X44802Y19133D01*
X45589D01*
X45983Y18740D01*
Y18346D01*
X45589Y17952D01*
X45196D01*
X45589D01*
X45983Y17559D01*
Y17165D01*
X45589Y16772D01*
X44802D01*
X44409Y17165D01*
X48858Y28622D02*
Y30983D01*
X50039D01*
X50433Y30590D01*
Y29803D01*
X50039Y29409D01*
X48858D01*
X49645D02*
X50433Y28622D01*
X52794D02*
X51220D01*
X52794Y30196D01*
Y30590D01*
X52400Y30983D01*
X51613D01*
X51220Y30590D01*
X9173Y36024D02*
Y38385D01*
X10354D01*
X10747Y37991D01*
Y37204D01*
X10354Y36811D01*
X9173D01*
X9960D02*
X10747Y36024D01*
X11535D02*
X12322D01*
X11928D01*
Y38385D01*
X11535Y37991D01*
X60669Y8503D02*
X60275Y8897D01*
X59488D01*
X59095Y8503D01*
Y6929D01*
X59488Y6535D01*
X60275D01*
X60669Y6929D01*
X63030Y8897D02*
X62243Y8503D01*
X61456Y7716D01*
Y6929D01*
X61849Y6535D01*
X62637D01*
X63030Y6929D01*
Y7323D01*
X62637Y7716D01*
X61456D01*
X35433Y31102D02*
X35039Y31495D01*
X34252D01*
X33858Y31102D01*
Y29527D01*
X34252Y29134D01*
X35039D01*
X35433Y29527D01*
X36220Y31102D02*
X36613Y31495D01*
X37400D01*
X37794Y31102D01*
Y30708D01*
X37400Y30315D01*
X37794Y29921D01*
Y29527D01*
X37400Y29134D01*
X36613D01*
X36220Y29527D01*
Y29921D01*
X36613Y30315D01*
X36220Y30708D01*
Y31102D01*
X36613Y30315D02*
X37400D01*
X14212Y16574D02*
X13818Y16968D01*
X13031D01*
X12638Y16574D01*
Y15000D01*
X13031Y14606D01*
X13818D01*
X14212Y15000D01*
X14999Y14606D02*
X15786D01*
X15393D01*
Y16968D01*
X14999Y16574D01*
X16967D02*
X17361Y16968D01*
X18148D01*
X18541Y16574D01*
Y15000D01*
X18148Y14606D01*
X17361D01*
X16967Y15000D01*
Y16574D01*
X66182Y33779D02*
X65788Y33385D01*
Y32598D01*
X66182Y32205D01*
X66575D01*
X66969Y32598D01*
Y33385D01*
X67362Y33779D01*
X67756D01*
X68150Y33385D01*
Y32598D01*
X67756Y32205D01*
X65788Y34566D02*
X68150D01*
X67362Y35353D01*
X68150Y36140D01*
X65788D01*
X68150Y36928D02*
Y37715D01*
Y37321D01*
X65788D01*
X66182Y36928D01*
X15118Y9921D02*
X14724Y10314D01*
X13937D01*
X13543Y9921D01*
Y8346D01*
X13937Y7953D01*
X14724D01*
X15118Y8346D01*
X15905Y10314D02*
X17479D01*
Y9921D01*
X15905Y8346D01*
Y7953D01*
X27558Y24055D02*
X27165Y24448D01*
X26378D01*
X25984Y24055D01*
Y22480D01*
X26378Y22087D01*
X27165D01*
X27558Y22480D01*
X28346D02*
X28739Y22087D01*
X29526D01*
X29920Y22480D01*
Y24055D01*
X29526Y24448D01*
X28739D01*
X28346Y24055D01*
Y23661D01*
X28739Y23267D01*
X29920D01*
X17519Y48503D02*
X17126Y48897D01*
X16339D01*
X15945Y48503D01*
Y46929D01*
X16339Y46535D01*
X17126D01*
X17519Y46929D01*
X18306Y46535D02*
X19094D01*
X18700D01*
Y48897D01*
X18306Y48503D01*
X17191Y26746D02*
X16797Y27139D01*
X16010D01*
X15617Y26746D01*
Y25172D01*
X16010Y24778D01*
X16797D01*
X17191Y25172D01*
X19159Y24778D02*
Y27139D01*
X17978Y25959D01*
X19553D01*
X42440Y36009D02*
X42046Y36403D01*
X41259D01*
X40866Y36009D01*
Y34435D01*
X41259Y34041D01*
X42046D01*
X42440Y34435D01*
X44802Y36403D02*
X43227D01*
Y35222D01*
X44014Y35616D01*
X44408D01*
X44802Y35222D01*
Y34435D01*
X44408Y34041D01*
X43621D01*
X43227Y34435D01*
X2897Y13123D02*
X2569Y12795D01*
Y12139D01*
X2897Y11811D01*
X4209D01*
X4537Y12139D01*
Y12795D01*
X4209Y13123D01*
X3553D01*
Y12467D01*
X4537Y13779D02*
X2569D01*
X4537Y15091D01*
X2569D01*
Y15747D02*
X4537D01*
Y16731D01*
X4209Y17059D01*
X2897D01*
X2569Y16731D01*
Y15747D01*
X2914Y45748D02*
X4226D01*
X4882Y46404D01*
X4226Y47060D01*
X2914D01*
X3242Y49028D02*
X2914Y48700D01*
Y48044D01*
X3242Y47716D01*
X4554D01*
X4882Y48044D01*
Y48700D01*
X4554Y49028D01*
X3242Y50996D02*
X2914Y50668D01*
Y50012D01*
X3242Y49684D01*
X4554D01*
X4882Y50012D01*
Y50668D01*
X4554Y50996D01*
X66377Y46574D02*
X65984Y46968D01*
X65197D01*
X64803Y46574D01*
Y45000D01*
X65197Y44606D01*
X65984D01*
X66377Y45000D01*
X67165Y44606D02*
X67952D01*
X67558D01*
Y46968D01*
X67165Y46574D01*
X70707Y44606D02*
X69132D01*
X70707Y46181D01*
Y46574D01*
X70313Y46968D01*
X69526D01*
X69132Y46574D01*
X69448Y16928D02*
X69055Y17322D01*
X68268D01*
X67874Y16928D01*
Y15354D01*
X68268Y14961D01*
X69055D01*
X69448Y15354D01*
X70236Y14961D02*
X71023D01*
X70629D01*
Y17322D01*
X70236Y16928D01*
X72203Y14961D02*
X72991D01*
X72597D01*
Y17322D01*
X72203Y16928D01*
X25787Y48621D02*
X26687Y46260D01*
X27587Y48621D02*
X26687Y46260D01*
X27890Y47272D02*
X29915D01*
X31064Y25157D02*
X33425Y26057D01*
X31064Y26957D02*
X33425Y26057D01*
X31401Y28273D02*
X33425D01*
X32413Y27261D02*
Y29285D01*
M02*
