%FSLAX25Y25*%
%MOIN*%
G70*
G01*
G75*
G04 Layer_Color=32896*
%ADD10C,0.05118*%
%ADD11R,0.02559X0.02165*%
%ADD12R,0.02165X0.02559*%
%ADD13R,0.01378X0.01378*%
%ADD14R,0.05906X0.02165*%
%ADD15R,0.01378X0.01378*%
%ADD16C,0.03150*%
%ADD17C,0.00787*%
%ADD18C,0.01969*%
%ADD19C,0.03937*%
%ADD20O,0.05000X0.03500*%
%ADD21C,0.05906*%
%ADD22C,0.03150*%
%ADD23C,0.01969*%
%ADD24C,0.03937*%
%ADD25R,0.02362X0.00787*%
%ADD26R,0.03150X0.00787*%
%ADD27R,0.00787X0.02362*%
%ADD28R,0.00787X0.03150*%
%ADD29R,0.05118X0.05118*%
%ADD30R,0.01575X0.03937*%
%ADD31R,0.05000X0.03600*%
%ADD32R,0.03600X0.03600*%
%ADD33R,0.01378X0.11811*%
%ADD34C,0.01575*%
%ADD35C,0.00500*%
%ADD36C,0.00591*%
%ADD37C,0.00394*%
%ADD38C,0.05918*%
%ADD39R,0.03359X0.02965*%
%ADD40R,0.02965X0.03359*%
%ADD41R,0.02178X0.02178*%
%ADD42R,0.06706X0.02965*%
%ADD43R,0.02178X0.02178*%
%ADD44O,0.05800X0.04300*%
%ADD45C,0.06706*%
%ADD46C,0.02769*%
%ADD47R,0.03162X0.01587*%
%ADD48R,0.03950X0.01587*%
%ADD49R,0.01587X0.03162*%
%ADD50R,0.01587X0.03950*%
%ADD51R,0.05918X0.05918*%
%ADD52R,0.02375X0.04737*%
%ADD53R,0.05800X0.04400*%
%ADD54R,0.04400X0.04400*%
%ADD55R,0.02178X0.12611*%
%ADD56C,0.00600*%
%ADD57C,0.00709*%
%ADD58C,0.01200*%
%ADD59C,0.01000*%
%ADD60C,0.00236*%
D17*
X63785Y34048D02*
G03*
X63785Y34048I-394J0D01*
G01*
X20998Y35857D02*
G03*
X20998Y35857I-394J0D01*
G01*
D35*
X51378Y47509D02*
X53189D01*
X51378D02*
Y49871D01*
X53189D01*
X54291Y47509D02*
X56063D01*
Y49871D01*
X54291D02*
X56063D01*
X53798Y43539D02*
X55609D01*
X53798D02*
Y45901D01*
X55609D01*
X56711Y43539D02*
X58483D01*
Y45901D01*
X56711D02*
X58483D01*
D36*
X62525Y31253D02*
Y32945D01*
X60872D02*
X62525D01*
X50714D02*
X52368D01*
X50714Y31292D02*
Y32945D01*
Y21135D02*
X52368D01*
X50714D02*
Y22788D01*
X60872Y21135D02*
X62525D01*
Y22788D01*
X70875Y6102D02*
Y49409D01*
X7883Y6102D02*
X70875D01*
X7883D02*
Y49409D01*
X70875D01*
D37*
X19536Y1260D02*
X20048Y748D01*
X58907D01*
X19536Y1260D02*
Y13284D01*
X59418D01*
Y1260D02*
Y13284D01*
X58907Y748D02*
X59418Y1260D01*
X65276Y37165D02*
Y35197D01*
X64882Y34803D01*
X64095D01*
X63701Y35197D01*
Y37165D01*
X62914Y34803D02*
X62127D01*
X62521D01*
Y37165D01*
X62914Y36771D01*
X21120Y16409D02*
X21907D01*
X21513D01*
Y14441D01*
X21907Y14047D01*
X22300D01*
X22694Y14441D01*
X20333Y14047D02*
X19545D01*
X19939D01*
Y16409D01*
X20333Y16015D01*
X24558Y35477D02*
X22590D01*
X22196Y35871D01*
Y36658D01*
X22590Y37052D01*
X24558D01*
X22196Y39413D02*
Y37839D01*
X23771Y39413D01*
X24164D01*
X24558Y39020D01*
Y38232D01*
X24164Y37839D01*
X10501Y18867D02*
X12469D01*
X12863Y18473D01*
Y17686D01*
X12469Y17293D01*
X10501D01*
X10895Y16506D02*
X10501Y16112D01*
Y15325D01*
X10895Y14931D01*
X11288D01*
X11682Y15325D01*
Y15718D01*
Y15325D01*
X12075Y14931D01*
X12469D01*
X12863Y15325D01*
Y16112D01*
X12469Y16506D01*
D56*
X61896Y31922D02*
G03*
X61896Y31922I-394J0D01*
G01*
D57*
X9002Y37207D02*
Y43507D01*
X20420D01*
X9002Y37207D02*
X20420D01*
Y43507D01*
D58*
X14653Y25678D02*
Y27678D01*
X23653Y21678D02*
Y22178D01*
X14653Y16178D02*
Y18178D01*
Y27678D02*
X19153D01*
X14653Y16178D02*
X19153D01*
D59*
X55290Y53140D02*
Y59138D01*
X52291D01*
X51291Y58138D01*
Y56139D01*
X52291Y55139D01*
X55290D01*
X53291D02*
X51291Y53140D01*
X49292Y54140D02*
X48292Y53140D01*
X46293D01*
X45293Y54140D01*
Y58138D01*
X46293Y59138D01*
X48292D01*
X49292Y58138D01*
Y57139D01*
X48292Y56139D01*
X45293D01*
X50510Y45170D02*
X44512D01*
Y42171D01*
X45512Y41171D01*
X47511D01*
X48511Y42171D01*
Y45170D01*
Y43171D02*
X50510Y41171D01*
Y39172D02*
Y37173D01*
Y38172D01*
X44512D01*
X45512Y39172D01*
Y34174D02*
X44512Y33174D01*
Y31174D01*
X45512Y30175D01*
X49510D01*
X50510Y31174D01*
Y33174D01*
X49510Y34174D01*
X45512D01*
D60*
X60383Y9799D02*
Y10193D01*
X60580Y10390D01*
X61367D01*
X61564Y10193D01*
Y9799D01*
X61367Y9603D01*
X60580D01*
X60383Y9799D01*
Y9209D02*
X61564D01*
Y8422D01*
X60383Y7241D02*
Y8028D01*
X61564D01*
Y7241D01*
X60974Y8028D02*
Y7635D01*
X60383Y6848D02*
X61564D01*
Y6257D01*
X61367Y6061D01*
X60580D01*
X60383Y6257D01*
Y6848D01*
X60974Y5667D02*
Y4880D01*
X60580Y4486D02*
X60383Y4289D01*
Y3896D01*
X60580Y3699D01*
X61367D01*
X61564Y3896D01*
Y4289D01*
X61367Y4486D01*
X60580D01*
X61564Y3305D02*
X61367D01*
Y3109D01*
X61564D01*
Y3305D01*
Y1731D02*
X60383D01*
X60974Y2321D01*
Y1534D01*
X61367Y1141D02*
X61564Y944D01*
Y550D01*
X61367Y354D01*
X60580D01*
X60383Y550D01*
Y944D01*
X60580Y1141D01*
X60777D01*
X60974Y944D01*
Y354D01*
X18001Y11753D02*
X18189Y11660D01*
X18470Y11378D01*
Y13347D01*
X18376Y11472D02*
Y13347D01*
X18001D02*
X18845D01*
X59918Y11541D02*
X60106Y11447D01*
X60387Y11166D01*
Y13134D01*
X60293Y11259D02*
Y13134D01*
X59918D02*
X60762D01*
X62036Y11353D02*
Y13134D01*
X62599Y12572D02*
X61099D01*
X62130Y11166D01*
Y13134D01*
X61755D02*
X62411D01*
M02*
