%FSLAX25Y25*%
%MOIN*%
G70*
G01*
G75*
%ADD10C,0.05118*%
%ADD11R,0.02559X0.02165*%
%ADD12R,0.02165X0.02559*%
%ADD13R,0.01378X0.01378*%
%ADD14R,0.05906X0.02165*%
%ADD15R,0.01378X0.01378*%
%ADD16C,0.03150*%
%ADD17C,0.00787*%
%ADD18C,0.01969*%
%ADD19C,0.03937*%
%ADD20O,0.05000X0.03500*%
%ADD21C,0.05906*%
%ADD22C,0.03150*%
%ADD23C,0.01969*%
%ADD24C,0.03937*%
%ADD25R,0.02362X0.00787*%
%ADD26R,0.03150X0.00787*%
%ADD27R,0.00787X0.02362*%
%ADD28R,0.00787X0.03150*%
%ADD29R,0.05118X0.05118*%
%ADD30R,0.01575X0.03937*%
%ADD31R,0.05000X0.03600*%
%ADD32R,0.03600X0.03600*%
%ADD33R,0.01378X0.11811*%
%ADD34C,0.01575*%
D10*
X67610Y54110D02*
D03*
X66160Y45070D02*
D03*
X47490Y43590D02*
D03*
X40050Y43790D02*
D03*
X59030Y54240D02*
D03*
D11*
X49690Y30977D02*
D03*
Y27040D02*
D03*
X15880Y53987D02*
D03*
Y50050D02*
D03*
D12*
X6803Y36300D02*
D03*
X10740D02*
D03*
D13*
X16009Y18110D02*
D03*
Y20472D02*
D03*
Y11417D02*
D03*
Y13780D02*
D03*
X23400Y23749D02*
D03*
Y26111D02*
D03*
X6940Y28531D02*
D03*
Y26169D02*
D03*
X65990Y21949D02*
D03*
Y24311D02*
D03*
X61730Y21949D02*
D03*
Y24311D02*
D03*
X43457Y28040D02*
D03*
Y30402D02*
D03*
X34770Y23671D02*
D03*
Y21309D02*
D03*
D14*
X72934Y23213D02*
D03*
Y35842D02*
D03*
D15*
X66230Y4570D02*
D03*
X68592D02*
D03*
X68631Y8580D02*
D03*
X66269D02*
D03*
X24821Y46420D02*
D03*
X22459D02*
D03*
X72609Y16850D02*
D03*
X74971D02*
D03*
X9941Y42010D02*
D03*
X7579D02*
D03*
X16791Y41900D02*
D03*
X14429D02*
D03*
X66269Y12830D02*
D03*
X68631D02*
D03*
Y16850D02*
D03*
X66269D02*
D03*
D20*
X30430Y31570D02*
D03*
Y41570D02*
D03*
D21*
X44969Y54160D02*
D03*
X33788D02*
D03*
M02*
