%FSLAX25Y25*%
%MOIN*%
G70*
G01*
G75*
G04 Layer_Color=128*
%ADD10C,0.05118*%
%ADD11R,0.02559X0.02165*%
%ADD12R,0.02165X0.02559*%
%ADD13R,0.01378X0.01378*%
%ADD14R,0.05906X0.02165*%
%ADD15R,0.01378X0.01378*%
%ADD16C,0.03150*%
%ADD17C,0.00787*%
%ADD18C,0.01969*%
%ADD19C,0.03937*%
%ADD20O,0.05000X0.03500*%
%ADD21C,0.05906*%
%ADD22C,0.03150*%
%ADD23C,0.01969*%
%ADD24C,0.03937*%
%ADD25R,0.02362X0.00787*%
%ADD26R,0.03150X0.00787*%
%ADD27R,0.00787X0.02362*%
%ADD28R,0.00787X0.03150*%
%ADD29R,0.05118X0.05118*%
%ADD30R,0.01575X0.03937*%
%ADD31R,0.05000X0.03600*%
%ADD32R,0.03600X0.03600*%
%ADD33R,0.01378X0.11811*%
%ADD34C,0.01575*%
%ADD35C,0.00500*%
%ADD36C,0.00591*%
%ADD37C,0.00394*%
%ADD38C,0.05918*%
%ADD39R,0.03359X0.02965*%
%ADD40R,0.02965X0.03359*%
%ADD41R,0.02178X0.02178*%
%ADD42R,0.06706X0.02965*%
%ADD43R,0.02178X0.02178*%
%ADD44O,0.05800X0.04300*%
%ADD45C,0.06706*%
%ADD46C,0.02769*%
%ADD47R,0.03162X0.01587*%
%ADD48R,0.03950X0.01587*%
%ADD49R,0.01587X0.03162*%
%ADD50R,0.01587X0.03950*%
%ADD51R,0.05918X0.05918*%
%ADD52R,0.02375X0.04737*%
%ADD53R,0.05800X0.04400*%
%ADD54R,0.04400X0.04400*%
%ADD55R,0.02178X0.12611*%
D15*
X52559Y48690D02*
D03*
X54921D02*
D03*
X54979Y44720D02*
D03*
X57341D02*
D03*
D25*
X62919Y30190D02*
D03*
Y23890D02*
D03*
X50321D02*
D03*
Y30190D02*
D03*
D26*
X62525Y28615D02*
D03*
Y27040D02*
D03*
Y25465D02*
D03*
X50714D02*
D03*
Y27040D02*
D03*
Y28615D02*
D03*
D27*
X59770Y20741D02*
D03*
X53470D02*
D03*
Y33339D02*
D03*
X59770D02*
D03*
D28*
X58195Y21135D02*
D03*
X56620D02*
D03*
X55045D02*
D03*
Y32945D02*
D03*
X56620D02*
D03*
X58195D02*
D03*
D29*
X56620Y27040D02*
D03*
D30*
X18451Y46459D02*
D03*
X10971D02*
D03*
X14711Y34255D02*
D03*
X10971D02*
D03*
X18451D02*
D03*
D31*
X15153Y21878D02*
D03*
D32*
X23153Y25678D02*
D03*
Y18178D02*
D03*
D33*
X21466Y7283D02*
D03*
X24221D02*
D03*
X26977D02*
D03*
X29733D02*
D03*
X32489D02*
D03*
X35245D02*
D03*
X38001D02*
D03*
X40757D02*
D03*
X43513D02*
D03*
X46269D02*
D03*
X49025D02*
D03*
X51781D02*
D03*
X54536D02*
D03*
X57292D02*
D03*
M02*
