%FSLAX25Y25*%
%MOIN*%
G70*
G01*
G75*
G04 Layer_Color=16711935*
%ADD10C,0.05118*%
%ADD11R,0.02559X0.02165*%
%ADD12R,0.02165X0.02559*%
%ADD13R,0.01378X0.01378*%
%ADD14R,0.05906X0.02165*%
%ADD15R,0.01378X0.01378*%
%ADD16C,0.03150*%
%ADD17C,0.00787*%
%ADD18C,0.01969*%
%ADD19C,0.03937*%
%ADD20O,0.05000X0.03500*%
%ADD21C,0.05906*%
%ADD22C,0.03150*%
%ADD23C,0.01969*%
%ADD24C,0.03937*%
%ADD25R,0.02362X0.00787*%
%ADD26R,0.03150X0.00787*%
%ADD27R,0.00787X0.02362*%
%ADD28R,0.00787X0.03150*%
%ADD29R,0.05118X0.05118*%
%ADD30R,0.01575X0.03937*%
%ADD31R,0.05000X0.03600*%
%ADD32R,0.03600X0.03600*%
%ADD33R,0.01378X0.11811*%
%ADD34C,0.01575*%
%ADD35C,0.00500*%
%ADD36C,0.00591*%
%ADD37C,0.00394*%
%ADD38C,0.05918*%
%ADD39R,0.03359X0.02965*%
%ADD40R,0.02965X0.03359*%
%ADD41R,0.02178X0.02178*%
%ADD42R,0.06706X0.02965*%
%ADD43R,0.02178X0.02178*%
%ADD44O,0.05800X0.04300*%
%ADD45C,0.06706*%
%ADD46C,0.02769*%
%ADD47R,0.03162X0.01587*%
%ADD48R,0.03950X0.01587*%
%ADD49R,0.01587X0.03162*%
%ADD50R,0.01587X0.03950*%
%ADD51R,0.05918X0.05918*%
%ADD52R,0.02375X0.04737*%
%ADD53R,0.05800X0.04400*%
%ADD54R,0.04400X0.04400*%
%ADD55R,0.02178X0.12611*%
%ADD56C,0.00600*%
%ADD57C,0.00709*%
%ADD58C,0.01200*%
%ADD59C,0.01000*%
%ADD60C,0.00236*%
D56*
X24783Y65381D02*
X26783D01*
X25783D01*
Y71379D01*
X24783Y70380D01*
X29782Y66381D02*
X30781Y65381D01*
X32781D01*
X33780Y66381D01*
Y70380D01*
X32781Y71379D01*
X30781D01*
X29782Y70380D01*
Y69380D01*
X30781Y68380D01*
X33780D01*
X35780Y65381D02*
Y66381D01*
X36779D01*
Y65381D01*
X35780D01*
X44777Y71379D02*
X42777Y70380D01*
X40778Y68380D01*
Y66381D01*
X41778Y65381D01*
X43777D01*
X44777Y66381D01*
Y67381D01*
X43777Y68380D01*
X40778D01*
X46776Y70380D02*
X47776Y71379D01*
X49775D01*
X50775Y70380D01*
Y66381D01*
X49775Y65381D01*
X47776D01*
X46776Y66381D01*
Y70380D01*
X-11853Y14932D02*
Y16931D01*
Y15931D01*
X-17851D01*
X-16851Y14932D01*
X-17851Y23929D02*
Y19930D01*
X-14852D01*
X-15851Y21929D01*
Y22929D01*
X-14852Y23929D01*
X-12852D01*
X-11853Y22929D01*
Y20930D01*
X-12852Y19930D01*
X-11853Y25928D02*
X-12852D01*
Y26928D01*
X-11853D01*
Y25928D01*
X-16851Y30927D02*
X-17851Y31926D01*
Y33926D01*
X-16851Y34925D01*
X-12852D01*
X-11853Y33926D01*
Y31926D01*
X-12852Y30927D01*
X-16851D01*
Y36925D02*
X-17851Y37924D01*
Y39924D01*
X-16851Y40923D01*
X-12852D01*
X-11853Y39924D01*
Y37924D01*
X-12852Y36925D01*
X-16851D01*
D59*
X792Y8549D02*
G03*
X13001Y0I12209J4444D01*
G01*
Y59055D02*
G03*
X792Y50507I0J-12992D01*
G01*
X77965D02*
G03*
X65757Y59055I-12209J-4444D01*
G01*
X65898Y0D02*
G03*
X77974Y8456I0J12851D01*
G01*
X77962Y52063D02*
Y69980D01*
X796Y52063D02*
Y69980D01*
X52375Y68980D02*
X77962D01*
X796D02*
X23183D01*
X71962Y70980D02*
X77962Y68980D01*
X71962Y66980D02*
X77962Y68980D01*
X796D02*
X6796Y66980D01*
X796Y68980D02*
X6796Y70980D01*
X-16452Y0D02*
X11501D01*
X-16452Y59055D02*
X11501D01*
X-15452Y0D02*
Y13332D01*
Y42523D02*
Y59055D01*
Y0D02*
X-13452Y6000D01*
X-17452D02*
X-15452Y0D01*
X-17452Y53055D02*
X-15452Y59055D01*
X-13452Y53055D01*
X77962Y8583D02*
Y50563D01*
X13001Y59055D02*
X65757D01*
X13001Y0D02*
X65898D01*
X796Y8583D02*
Y50563D01*
M02*
