M48
;Layer_Color=9474304
;FILE_FORMAT=2:5
INCH,LZ
;TYPE=PLATED
T1F00S00C0.01181
T2F00S00C0.02362
T3F00S00C0.02400
%
T01
X0013937Y0003425
X0016063Y0008976
X0017677Y0014646
X0027008Y0014803
X0029764Y0015866
X0036614Y0014803
X0036063Y002815
X0037992Y0034685
X0045827Y0032598
X0050039Y0038858
X0056614Y0037913
X0060394Y0040394
X006063Y004685
X0063228Y0050984
X0067953Y0054213
X0054449Y0053504
X0040157Y0054488
X0020394Y0046417
X0024528Y0038858
X0028637Y0023661
X0050472Y0018465
X0055394Y0025945
Y002815
X0057795
X0057874Y0025945
X0065945Y0027323
X0064961Y003311
X0065315Y0038465
X0073622Y0042362
X0074252Y0027953
X0068622Y0019094
X0063307Y0017126
X0063386Y0013858
X0064016Y0009291
X0063937Y0004409
X0072716Y0006575
X0073307Y0012087
X0010512Y0006968
X0006417Y0016299
T02
X0033788Y005416
X0044969
X0010905Y0051732
X0012593Y0029257
T03
X003043Y003157
Y004157
M30
