%FSLAX25Y25*%
%MOIN*%
G70*
G01*
G75*
%ADD10C,0.05118*%
%ADD11R,0.02559X0.02165*%
%ADD12R,0.02165X0.02559*%
%ADD13R,0.01378X0.01378*%
%ADD14R,0.05906X0.02165*%
%ADD15R,0.01378X0.01378*%
%ADD16C,0.03150*%
%ADD17C,0.00787*%
%ADD18C,0.01969*%
%ADD19C,0.03937*%
%ADD20O,0.05000X0.03500*%
%ADD21C,0.05906*%
%ADD22C,0.03150*%
%ADD23C,0.01969*%
%ADD24C,0.03937*%
%ADD25R,0.02362X0.00787*%
%ADD26R,0.03150X0.00787*%
%ADD27R,0.00787X0.02362*%
%ADD28R,0.00787X0.03150*%
%ADD29R,0.05118X0.05118*%
%ADD30R,0.01575X0.03937*%
%ADD31R,0.05000X0.03600*%
%ADD32R,0.03600X0.03600*%
%ADD33R,0.01378X0.11811*%
%ADD34C,0.01575*%
%ADD35C,0.00500*%
%ADD36C,0.00591*%
%ADD37C,0.00394*%
D17*
X69194Y37598D02*
X76674D01*
X69194Y21457D02*
X76674D01*
Y37598D01*
X69194Y21457D02*
Y37598D01*
X30048Y58097D02*
X48710D01*
Y50223D02*
Y58097D01*
X30048Y50223D02*
X48710D01*
X30048D02*
Y58097D01*
X50472Y53813D02*
X53846D01*
X26687Y55775D02*
Y52402D01*
X25000Y54088D02*
X28374D01*
D35*
X51655Y32395D02*
G03*
X47756Y32392I-1945J-4864D01*
G01*
X47726Y25539D02*
G03*
X51662Y25464I2063J4907D01*
G01*
X5385Y38265D02*
G03*
X5388Y34366I4864J-1945D01*
G01*
X12241Y34336D02*
G03*
X12316Y38272I-4907J2063D01*
G01*
X17845Y55405D02*
G03*
X13946Y55402I-1945J-4864D01*
G01*
X13916Y48549D02*
G03*
X17852Y48474I2063J4907D01*
G01*
X17200Y21325D02*
G03*
X14822Y21313I-1175J-2922D01*
G01*
X14817Y17257D02*
G03*
X17196Y17269I1175J2922D01*
G01*
X17200Y14632D02*
G03*
X14822Y14620I-1175J-2922D01*
G01*
X14817Y10565D02*
G03*
X17196Y10576I1175J2922D01*
G01*
X69445Y3379D02*
G03*
X69433Y5757I-2922J1175D01*
G01*
X65377Y5762D02*
G03*
X65389Y3383I2922J-1175D01*
G01*
X24591Y26964D02*
G03*
X22213Y26952I-1175J-2922D01*
G01*
X22208Y22896D02*
G03*
X24587Y22908I1175J2922D01*
G01*
X5748Y25316D02*
G03*
X8127Y25328I1175J2922D01*
G01*
X8132Y29384D02*
G03*
X5753Y29372I-1175J-2922D01*
G01*
X65416Y9771D02*
G03*
X65428Y7393I2922J-1175D01*
G01*
X69484Y7389D02*
G03*
X69472Y9767I-2922J1175D01*
G01*
X67181Y25164D02*
G03*
X64803Y25152I-1175J-2922D01*
G01*
X64798Y21096D02*
G03*
X67177Y21108I1175J2922D01*
G01*
X62922Y25164D02*
G03*
X60543Y25152I-1175J-2922D01*
G01*
X60539Y21096D02*
G03*
X62917Y21108I1175J2922D01*
G01*
X51658Y29796D02*
Y32394D01*
X47721Y29908D02*
Y32394D01*
X51658Y25462D02*
Y28221D01*
X47721Y25541D02*
Y28221D01*
X5386Y38269D02*
X7984D01*
X5386Y34332D02*
X7872D01*
X9559Y38269D02*
X12318D01*
X9559Y34332D02*
X12239D01*
X17849Y52806D02*
Y55404D01*
X13912Y52918D02*
Y55404D01*
X17849Y48472D02*
Y51231D01*
X13912Y48551D02*
Y51231D01*
X14828Y17284D02*
Y18898D01*
X17190Y17284D02*
Y18898D01*
X14828Y19685D02*
Y21299D01*
X17190Y19685D02*
Y21299D01*
X14828Y10591D02*
Y12205D01*
X17190Y10591D02*
Y12205D01*
X14828Y12992D02*
Y14606D01*
X17190Y12992D02*
Y14606D01*
X65403Y5751D02*
X67017D01*
X65403Y3389D02*
X67017D01*
X67805Y5751D02*
X69419D01*
X67805Y3389D02*
X69419D01*
X22219Y22922D02*
Y24536D01*
X24581Y22922D02*
Y24536D01*
X22219Y25324D02*
Y26938D01*
X24581Y25324D02*
Y26938D01*
X8121Y27744D02*
Y29358D01*
X5759Y27744D02*
Y29358D01*
X8121Y25342D02*
Y26956D01*
X5759Y25342D02*
Y26956D01*
X67844Y7399D02*
X69458D01*
X67844Y9761D02*
X69458D01*
X65442Y7399D02*
X67056D01*
X65442Y9761D02*
X67056D01*
X64809Y21122D02*
Y22736D01*
X67171Y21122D02*
Y22736D01*
X64809Y23524D02*
Y25138D01*
X67171Y23524D02*
Y25138D01*
X60549Y21122D02*
Y22736D01*
X62911Y21122D02*
Y22736D01*
X60549Y23524D02*
Y25138D01*
X62911Y23524D02*
Y25138D01*
X24191Y45239D02*
X25963D01*
Y47601D01*
X24191D02*
X25963D01*
X21278Y45239D02*
X23089D01*
X21278D02*
Y47601D01*
X23089D01*
X71467Y18031D02*
X73239D01*
X71467Y15669D02*
Y18031D01*
Y15669D02*
X73239D01*
X74341Y18031D02*
X76152D01*
Y15669D02*
Y18031D01*
X74341Y15669D02*
X76152D01*
X42276Y26898D02*
Y28670D01*
Y26898D02*
X44638D01*
Y28670D01*
X42276Y29772D02*
Y31583D01*
X44638D01*
Y29772D02*
Y31583D01*
X9311Y40829D02*
X11083D01*
Y43191D01*
X9311D02*
X11083D01*
X6398Y40829D02*
X8209D01*
X6398D02*
Y43191D01*
X8209D01*
X16161Y40719D02*
X17933D01*
Y43081D01*
X16161D02*
X17933D01*
X13248Y40719D02*
X15059D01*
X13248D02*
Y43081D01*
X15059D01*
X65127Y14011D02*
X66899D01*
X65127Y11649D02*
Y14011D01*
Y11649D02*
X66899D01*
X68001Y14011D02*
X69812D01*
Y11649D02*
Y14011D01*
X68001Y11649D02*
X69812D01*
X68001Y15669D02*
X69812D01*
Y18031D01*
X68001D02*
X69812D01*
X65127Y15669D02*
X66899D01*
X65127D02*
Y18031D01*
X66899D01*
X35951Y23041D02*
Y24852D01*
X33589D02*
X35951D01*
X33589Y23041D02*
Y24852D01*
X35951Y20167D02*
Y21939D01*
X33589Y20167D02*
X35951D01*
X33589D02*
Y21939D01*
D36*
X16190Y35206D02*
Y41693D01*
Y17362D02*
Y23849D01*
Y17362D02*
X22677D01*
X56081D02*
X62568D01*
Y23849D01*
Y35206D02*
Y41693D01*
X56081D02*
X62568D01*
X16190D02*
X22677D01*
X35351Y29523D02*
Y43578D01*
X25509Y29523D02*
Y43578D01*
Y29523D02*
X35351D01*
X25509Y43578D02*
X35351D01*
D37*
X64858Y50517D02*
Y48943D01*
X65645Y48156D01*
X66432Y48943D01*
Y50517D01*
X68793Y50124D02*
X68400Y50517D01*
X67612D01*
X67219Y50124D01*
Y48549D01*
X67612Y48156D01*
X68400D01*
X68793Y48549D01*
X71155Y50124D02*
X70761Y50517D01*
X69974D01*
X69580Y50124D01*
Y48549D01*
X69974Y48156D01*
X70761D01*
X71155Y48549D01*
X37029Y38320D02*
Y40682D01*
X38210D01*
X38603Y40288D01*
Y39501D01*
X38210Y39107D01*
X37029D01*
X37816D02*
X38603Y38320D01*
X40965Y40288D02*
X40571Y40682D01*
X39784D01*
X39391Y40288D01*
Y39894D01*
X39784Y39501D01*
X40571D01*
X40965Y39107D01*
Y38714D01*
X40571Y38320D01*
X39784D01*
X39391Y38714D01*
X41752Y40682D02*
X43326D01*
X42539D01*
Y38320D01*
X57509Y50057D02*
X57115Y50450D01*
X56328D01*
X55934Y50057D01*
Y48482D01*
X56328Y48089D01*
X57115D01*
X57509Y48482D01*
Y49270D01*
X56722D01*
X58296Y48089D02*
Y50450D01*
X59870Y48089D01*
Y50450D01*
X60657D02*
Y48089D01*
X61838D01*
X62232Y48482D01*
Y50057D01*
X61838Y50450D01*
X60657D01*
X63809Y41962D02*
Y39600D01*
X64990D01*
X65383Y39994D01*
Y41568D01*
X64990Y41962D01*
X63809D01*
X66171Y39600D02*
Y41174D01*
X66958Y41962D01*
X67745Y41174D01*
Y39600D01*
Y40781D01*
X66171D01*
X68532Y41962D02*
X70106D01*
X69319D01*
Y39600D01*
X45847Y40206D02*
X45453Y40600D01*
X44666D01*
X44273Y40206D01*
Y38632D01*
X44666Y38238D01*
X45453D01*
X45847Y38632D01*
X46634Y40600D02*
Y38238D01*
X48208D01*
X48996Y40600D02*
Y38238D01*
Y39025D01*
X50570Y40600D01*
X49389Y39419D01*
X50570Y38238D01*
X54199Y29570D02*
X54593Y29963D01*
Y30751D01*
X54199Y31144D01*
X52625D01*
X52231Y30751D01*
Y29963D01*
X52625Y29570D01*
X54593Y27209D02*
Y28783D01*
X53412D01*
X53806Y27996D01*
Y27602D01*
X53412Y27209D01*
X52625D01*
X52231Y27602D01*
Y28389D01*
X52625Y28783D01*
X8661Y33346D02*
X8268Y33739D01*
X7480D01*
X7087Y33346D01*
Y31771D01*
X7480Y31378D01*
X8268D01*
X8661Y31771D01*
X10629Y31378D02*
Y33739D01*
X9448Y32559D01*
X11022D01*
X20787Y50237D02*
X21180Y50630D01*
Y51417D01*
X20787Y51811D01*
X19212D01*
X18819Y51417D01*
Y50630D01*
X19212Y50237D01*
X18819Y49450D02*
Y48662D01*
Y49056D01*
X21180D01*
X20787Y49450D01*
X11812Y19015D02*
X11418Y18622D01*
Y17834D01*
X11812Y17441D01*
X13386D01*
X13780Y17834D01*
Y18622D01*
X13386Y19015D01*
Y19802D02*
X13780Y20196D01*
Y20983D01*
X13386Y21377D01*
X11812D01*
X11418Y20983D01*
Y20196D01*
X11812Y19802D01*
X12205D01*
X12599Y20196D01*
Y21377D01*
X11890Y12401D02*
X11497Y12008D01*
Y11220D01*
X11890Y10827D01*
X13465D01*
X13858Y11220D01*
Y12008D01*
X13465Y12401D01*
X11497Y13188D02*
Y14762D01*
X11890D01*
X13465Y13188D01*
X13858D01*
X66182Y33779D02*
X65788Y33385D01*
Y32598D01*
X66182Y32205D01*
X66575D01*
X66969Y32598D01*
Y33385D01*
X67362Y33779D01*
X67756D01*
X68150Y33385D01*
Y32598D01*
X67756Y32205D01*
X65788Y34566D02*
X68150D01*
X67362Y35353D01*
X68150Y36140D01*
X65788D01*
X68150Y36928D02*
Y37715D01*
Y37321D01*
X65788D01*
X66182Y36928D01*
X60551Y5314D02*
X60157Y5708D01*
X59370D01*
X58976Y5314D01*
Y3740D01*
X59370Y3347D01*
X60157D01*
X60551Y3740D01*
X61338Y3347D02*
X62125D01*
X61731D01*
Y5708D01*
X61338Y5314D01*
X63306Y3347D02*
X64093D01*
X63699D01*
Y5708D01*
X63306Y5314D01*
X22476Y29260D02*
X22082Y28867D01*
Y28080D01*
X22476Y27686D01*
X24050D01*
X24443Y28080D01*
Y28867D01*
X24050Y29260D01*
X24443Y30047D02*
Y30834D01*
Y30441D01*
X22082D01*
X22476Y30047D01*
Y32015D02*
X22082Y32409D01*
Y33196D01*
X22476Y33590D01*
X24050D01*
X24443Y33196D01*
Y32409D01*
X24050Y32015D01*
X22476D01*
X6142Y22204D02*
X5749Y21811D01*
Y21023D01*
X6142Y20630D01*
X7717D01*
X8110Y21023D01*
Y21811D01*
X7717Y22204D01*
X6142Y22991D02*
X5749Y23385D01*
Y24172D01*
X6142Y24566D01*
X6536D01*
X6929Y24172D01*
X7323Y24566D01*
X7717D01*
X8110Y24172D01*
Y23385D01*
X7717Y22991D01*
X7323D01*
X6929Y23385D01*
X6536Y22991D01*
X6142D01*
X6929Y23385D02*
Y24172D01*
X72047Y9448D02*
X71653Y9842D01*
X70866D01*
X70472Y9448D01*
Y7874D01*
X70866Y7480D01*
X71653D01*
X72047Y7874D01*
X74408Y9842D02*
X73621Y9448D01*
X72834Y8661D01*
Y7874D01*
X73227Y7480D01*
X74015D01*
X74408Y7874D01*
Y8268D01*
X74015Y8661D01*
X72834D01*
X64857Y27515D02*
X64463Y27122D01*
Y26335D01*
X64857Y25941D01*
X66431D01*
X66825Y26335D01*
Y27122D01*
X66431Y27515D01*
X66825Y29877D02*
Y28302D01*
X65250Y29877D01*
X64857D01*
X64463Y29483D01*
Y28696D01*
X64857Y28302D01*
X60636Y27515D02*
X60243Y27122D01*
Y26335D01*
X60636Y25941D01*
X62211D01*
X62604Y26335D01*
Y27122D01*
X62211Y27515D01*
X60636Y28302D02*
X60243Y28696D01*
Y29483D01*
X60636Y29877D01*
X61030D01*
X61423Y29483D01*
Y29090D01*
Y29483D01*
X61817Y29877D01*
X62211D01*
X62604Y29483D01*
Y28696D01*
X62211Y28302D01*
X26772Y45158D02*
Y47519D01*
X27952D01*
X28346Y47125D01*
Y46338D01*
X27952Y45945D01*
X26772D01*
X27559D02*
X28346Y45158D01*
X29133D02*
X29920D01*
X29527D01*
Y47519D01*
X29133Y47125D01*
X71969Y18425D02*
Y20787D01*
X73149D01*
X73543Y20393D01*
Y19606D01*
X73149Y19212D01*
X71969D01*
X72756D02*
X73543Y18425D01*
X75904D02*
X74330D01*
X75904Y19999D01*
Y20393D01*
X75511Y20787D01*
X74724D01*
X74330Y20393D01*
X44569Y32241D02*
X42207D01*
Y33422D01*
X42601Y33815D01*
X43388D01*
X43782Y33422D01*
Y32241D01*
Y33028D02*
X44569Y33815D01*
X42601Y34602D02*
X42207Y34996D01*
Y35783D01*
X42601Y36177D01*
X42994D01*
X43388Y35783D01*
Y35389D01*
Y35783D01*
X43782Y36177D01*
X44175D01*
X44569Y35783D01*
Y34996D01*
X44175Y34602D01*
X6651Y43908D02*
Y46270D01*
X7831D01*
X8225Y45876D01*
Y45089D01*
X7831Y44695D01*
X6651D01*
X7438D02*
X8225Y43908D01*
X10193D02*
Y46270D01*
X9012Y45089D01*
X10586D01*
X13701Y44094D02*
Y46456D01*
X14882D01*
X15275Y46062D01*
Y45275D01*
X14882Y44882D01*
X13701D01*
X14488D02*
X15275Y44094D01*
X17637Y46456D02*
X16062D01*
Y45275D01*
X16849Y45669D01*
X17243D01*
X17637Y45275D01*
Y44488D01*
X17243Y44094D01*
X16456D01*
X16062Y44488D01*
X70551Y11654D02*
Y14015D01*
X71732D01*
X72126Y13621D01*
Y12834D01*
X71732Y12441D01*
X70551D01*
X71338D02*
X72126Y11654D01*
X74487Y14015D02*
X73700Y13621D01*
X72913Y12834D01*
Y12047D01*
X73306Y11654D01*
X74093D01*
X74487Y12047D01*
Y12441D01*
X74093Y12834D01*
X72913D01*
X35945Y15551D02*
X33583D01*
Y16732D01*
X33977Y17126D01*
X34764D01*
X35158Y16732D01*
Y15551D01*
Y16338D02*
X35945Y17126D01*
X33583Y17913D02*
Y19487D01*
X33977D01*
X35551Y17913D01*
X35945D01*
X63465Y18268D02*
Y20629D01*
X64645D01*
X65039Y20236D01*
Y19448D01*
X64645Y19055D01*
X63465D01*
X64252D02*
X65039Y18268D01*
X65826Y20236D02*
X66220Y20629D01*
X67007D01*
X67400Y20236D01*
Y19842D01*
X67007Y19448D01*
X67400Y19055D01*
Y18661D01*
X67007Y18268D01*
X66220D01*
X65826Y18661D01*
Y19055D01*
X66220Y19448D01*
X65826Y19842D01*
Y20236D01*
X66220Y19448D02*
X67007D01*
X32335Y34853D02*
Y34066D01*
Y34459D01*
X34302D01*
X34696Y34066D01*
Y33672D01*
X34302Y33279D01*
X34696Y35640D02*
X32335D01*
Y36821D01*
X32728Y37215D01*
X33515D01*
X33909Y36821D01*
Y35640D01*
X34696Y39576D02*
Y38002D01*
X33122Y39576D01*
X32728D01*
X32335Y39182D01*
Y38395D01*
X32728Y38002D01*
X51456Y57755D02*
X50669D01*
X51063D01*
Y55787D01*
X50669Y55394D01*
X50275D01*
X49882Y55787D01*
X52243Y55394D02*
Y57755D01*
X53424D01*
X53818Y57362D01*
Y56574D01*
X53424Y56181D01*
X52243D01*
X54605Y55394D02*
X55392D01*
X54998D01*
Y57755D01*
X54605Y57362D01*
X31064Y25157D02*
X33425Y26057D01*
X31064Y26957D02*
X33425Y26057D01*
X31401Y28273D02*
X33425D01*
X32413Y27261D02*
Y29285D01*
X31418Y44252D02*
X33779Y45152D01*
X31418Y46051D02*
X33779Y45152D01*
X32767Y46355D02*
Y48379D01*
M02*
