%FSLAX25Y25*%
%MOIN*%
G70*
G01*
G75*
G04 Layer_Color=2752767*
%ADD10C,0.05118*%
%ADD11R,0.02559X0.02165*%
%ADD12R,0.02165X0.02559*%
%ADD13R,0.01378X0.01378*%
%ADD14R,0.05906X0.02165*%
%ADD15R,0.01378X0.01378*%
%ADD16C,0.03150*%
%ADD17C,0.00787*%
%ADD18C,0.01969*%
%ADD19C,0.03937*%
%ADD20O,0.05000X0.03500*%
%ADD21C,0.05906*%
%ADD22C,0.03150*%
%ADD23C,0.01969*%
%ADD24C,0.03937*%
%ADD25R,0.02362X0.00787*%
%ADD26R,0.03150X0.00787*%
%ADD27R,0.00787X0.02362*%
%ADD28R,0.00787X0.03150*%
%ADD29R,0.05118X0.05118*%
%ADD30R,0.01575X0.03937*%
%ADD31R,0.05000X0.03600*%
%ADD32R,0.03600X0.03600*%
%ADD33R,0.01378X0.11811*%
%ADD34C,0.01575*%
%ADD35C,0.00500*%
%ADD36C,0.00591*%
%ADD37C,0.00394*%
%ADD38C,0.05918*%
%ADD39R,0.03359X0.02965*%
%ADD40R,0.02965X0.03359*%
%ADD41R,0.02178X0.02178*%
%ADD42R,0.06706X0.02965*%
%ADD43R,0.02178X0.02178*%
%ADD44O,0.05800X0.04300*%
%ADD45C,0.06706*%
%ADD46C,0.02769*%
%ADD47R,0.03162X0.01587*%
%ADD48R,0.03950X0.01587*%
%ADD49R,0.01587X0.03162*%
%ADD50R,0.01587X0.03950*%
%ADD51R,0.05918X0.05918*%
%ADD52R,0.02375X0.04737*%
%ADD53R,0.05800X0.04400*%
%ADD54R,0.04400X0.04400*%
%ADD55R,0.02178X0.12611*%
%ADD56C,0.00600*%
%ADD57C,0.00709*%
%ADD58C,0.01200*%
%ADD59C,0.01000*%
%ADD60C,0.00236*%
%ADD61C,0.00667*%
D60*
X28430Y29570D02*
Y33570D01*
X32430D01*
Y29570D01*
X28430D01*
Y39570D02*
Y43570D01*
X32430D01*
Y39570D01*
X28430D01*
X28637Y21661D02*
X26636Y25661D01*
X30637D01*
X28637Y21661D01*
X73622Y40362D02*
X71622Y44362D01*
X75622D01*
X73622Y40362D01*
X63228Y48984D02*
X61228Y52984D01*
X65228D01*
X63228Y48984D01*
X67953Y52213D02*
X65953Y56213D01*
X69953D01*
X67953Y52213D01*
X36063Y26150D02*
X34063Y30150D01*
X38063D01*
X36063Y26150D01*
X60630Y44850D02*
X58630Y48850D01*
X62630D01*
X60630Y44850D01*
X40157Y52488D02*
X38157Y56488D01*
X42158D01*
X40157Y52488D01*
X13937Y1425D02*
X11937Y5425D01*
X15937D01*
X13937Y1425D01*
X10512Y4969D02*
X8512Y8969D01*
X12512D01*
X10512Y4969D01*
X6417Y14299D02*
X4417Y18299D01*
X8417D01*
X6417Y14299D01*
X72716Y4575D02*
X70717Y8575D01*
X74717D01*
X72716Y4575D01*
X73307Y10087D02*
X71307Y14087D01*
X75307D01*
X73307Y10087D01*
X37992Y32685D02*
X35992Y36685D01*
X39992D01*
X37992Y32685D01*
X54449Y51504D02*
X52449Y55504D01*
X56449D01*
X54449Y51504D01*
X36614Y12803D02*
X34614Y16803D01*
X38614D01*
X36614Y12803D01*
X55394Y23945D02*
X53394Y27945D01*
X57394D01*
X55394Y23945D01*
X57874D02*
X55874Y27945D01*
X59874D01*
X57874Y23945D01*
X57795Y26150D02*
X55795Y30150D01*
X59795D01*
X57795Y26150D01*
X55394D02*
X53394Y30150D01*
X57394D01*
X55394Y26150D01*
X68622Y17095D02*
X66622Y21094D01*
X70622D01*
X68622Y17095D01*
X63307Y15126D02*
X61307Y19126D01*
X65307D01*
X63307Y15126D01*
X50472Y16465D02*
X48472Y20465D01*
X52472D01*
X50472Y16465D01*
X63386Y11858D02*
X61386Y15858D01*
X65386D01*
X63386Y11858D01*
X64016Y7291D02*
X62016Y11291D01*
X66016D01*
X64016Y7291D01*
X63937Y2410D02*
X61937Y6409D01*
X65937D01*
X63937Y2410D01*
X20394Y44417D02*
X18394Y48417D01*
X22394D01*
X20394Y44417D01*
X29764Y13866D02*
X27764Y17866D01*
X31764D01*
X29764Y13866D01*
X27008Y12803D02*
X25008Y16803D01*
X29008D01*
X27008Y12803D01*
X17677Y12646D02*
X15677Y16646D01*
X19677D01*
X17677Y12646D01*
X16063Y6976D02*
X14063Y10976D01*
X18063D01*
X16063Y6976D01*
X74252Y25953D02*
X72252Y29953D01*
X76252D01*
X74252Y25953D01*
X65945Y25323D02*
X63945Y29323D01*
X67945D01*
X65945Y25323D01*
X24528Y36858D02*
X22528Y40858D01*
X26528D01*
X24528Y36858D01*
X64961Y31110D02*
X62961Y35110D01*
X66961D01*
X64961Y31110D01*
X65315Y36465D02*
X63315Y40465D01*
X67315D01*
X65315Y36465D01*
X45827Y30598D02*
X43827Y34598D01*
X47827D01*
X45827Y30598D01*
X56614Y35913D02*
X54614Y39913D01*
X58614D01*
X56614Y35913D01*
X60394Y38394D02*
X58394Y42394D01*
X62394D01*
X60394Y38394D01*
X50039Y36858D02*
X48039Y40858D01*
X52039D01*
X50039Y36858D01*
D61*
X46970Y54160D02*
G03*
X46970Y54160I-2000J0D01*
G01*
X35788D02*
G03*
X35788Y54160I-2000J0D01*
G01*
X14593Y29257D02*
G03*
X14593Y29257I-2000J0D01*
G01*
X12905Y51732D02*
G03*
X12905Y51732I-2000J0D01*
G01*
M02*
